<svg width="28" height="34" viewBox="0 0 28 34" fill="none" xmlns="http://www.w3.org/2000/svg">
<path d="M23.7953 20.3V23.1C23.7953 23.2857 23.7216 23.4637 23.5903 23.595C23.459 23.7263 23.281 23.8 23.0953 23.8H4.89531C4.70966 23.8 4.53161 23.7263 4.40034 23.595C4.26906 23.4637 4.19531 23.2857 4.19531 23.1V20.3C4.19531 20.1143 4.26906 19.9363 4.40034 19.805C4.53161 19.6737 4.70966 19.6 4.89531 19.6C5.08096 19.6 5.25901 19.6737 5.39029 19.805C5.52156 19.9363 5.59531 20.1143 5.59531 20.3V22.4H22.3953V20.3C22.3953 20.1143 22.4691 19.9363 22.6003 19.805C22.7316 19.6737 22.9097 19.6 23.0953 19.6C23.281 19.6 23.459 19.6737 23.5903 19.805C23.7216 19.9363 23.7953 20.1143 23.7953 20.3ZM13.4983 20.797C13.5649 20.8607 13.6434 20.9107 13.7293 20.944C13.8131 20.981 13.9037 21.0002 13.9953 21.0002C14.0869 21.0002 14.1775 20.981 14.2613 20.944C14.3472 20.9107 14.4257 20.8607 14.4923 20.797L20.7923 14.497C20.9241 14.3652 20.9982 14.1864 20.9982 14C20.9982 13.8136 20.9241 13.6348 20.7923 13.503C20.6605 13.3712 20.4817 13.2971 20.2953 13.2971C20.1089 13.2971 19.9301 13.3712 19.7983 13.503L14.6953 18.613V4.2C14.6953 4.01435 14.6216 3.8363 14.4903 3.70503C14.359 3.57375 14.181 3.5 13.9953 3.5C13.8097 3.5 13.6316 3.57375 13.5003 3.70503C13.3691 3.8363 13.2953 4.01435 13.2953 4.2V18.613L8.19231 13.503C8.12705 13.4377 8.04956 13.386 7.96429 13.3506C7.87901 13.3153 7.78761 13.2971 7.69531 13.2971C7.60301 13.2971 7.51161 13.3153 7.42634 13.3506C7.34106 13.386 7.26358 13.4377 7.19831 13.503C7.13305 13.5683 7.08127 13.6457 7.04595 13.731C7.01063 13.8163 6.99245 13.9077 6.99245 14C6.99245 14.1864 7.0665 14.3652 7.19831 14.497L13.4983 20.797Z" fill="black"/>
</svg>
