<svg width="47" height="46" viewBox="0 0 47 46" fill="none" xmlns="http://www.w3.org/2000/svg">
<path d="M41.0513 43.8951L2.99483 4.81934C2.49017 4.30116 2.15319 3.65326 2.05803 3.01815C1.96287 2.38305 2.11732 1.81277 2.48741 1.43278C2.85749 1.05278 3.41289 0.894192 4.03143 0.991901C4.64997 1.08961 5.28098 1.43561 5.78564 1.95379L43.8421 41.0295C44.3468 41.5477 44.6837 42.1956 44.7789 42.8307C44.8741 43.4658 44.7196 44.0361 44.3495 44.4161C43.9794 44.7961 43.424 44.9547 42.8055 44.8569C42.187 44.7592 41.556 44.4132 41.0513 43.8951Z" fill="black"/>
<path d="M42.8048 5.54406L4.74832 44.6198C4.24366 45.138 3.61265 45.484 2.99412 45.5817C2.37558 45.6794 1.82018 45.5208 1.45009 45.1408C1.08001 44.7608 0.925555 44.1905 1.02071 43.5554C1.11587 42.9203 1.45285 42.2724 1.95751 41.7542L40.014 2.6785C40.5186 2.16033 41.1496 1.81432 41.7682 1.71662C42.3867 1.61891 42.9421 1.7775 43.3122 2.15749C43.6823 2.53749 43.8367 3.10777 43.7416 3.74287C43.6464 4.37797 43.3094 5.02588 42.8048 5.54406Z" fill="black"/>
</svg>
